<svg width="210" height="65" viewBox="0 0 210 65" fill="none" xmlns="http://www.w3.org/2000/svg">
<path fill-rule="evenodd" clip-rule="evenodd" d="M29.4154 23.9705C32.1557 20.4682 36.5439 18.1993 41.4899 18.1993C46.4649 18.1993 50.8754 20.495 53.6125 24.0324C53.4959 24.1462 53.3899 24.2642 53.2938 24.382C52.7924 24.9988 52.4152 25.7934 52.113 26.6003C51.5044 28.2231 51.0402 30.3429 50.6105 32.3278L50.5722 32.5063C50.1434 34.4876 49.7448 36.3303 49.2629 37.6982C49.0464 38.3127 48.8411 38.7472 48.659 39.0254C48.469 38.7449 48.2534 38.3052 48.0253 37.6818C47.5098 36.2747 47.0763 34.3607 46.6167 32.317L46.6018 32.2501V32.25C46.1602 30.2871 45.6917 28.2043 45.1076 26.61C44.8142 25.8091 44.4542 25.0225 43.9832 24.4113C43.5211 23.8116 42.7517 23.1347 41.6266 23.1347C40.5085 23.1347 39.7356 23.8042 39.2667 24.3972C38.7867 25.0045 38.4125 25.7878 38.1042 26.5891C37.4834 28.2026 36.9758 30.3133 36.5034 32.301L36.4546 32.5063C35.9869 34.4753 35.5496 36.3162 35.0532 37.6867C34.8637 38.21 34.6849 38.6083 34.5231 38.8927C34.3649 38.6096 34.1905 38.214 34.0062 37.6951C33.53 36.3538 33.1128 34.5644 32.6648 32.6426L32.5864 32.3063C32.1222 30.3174 31.6185 28.2029 30.9889 26.5843C30.676 25.7801 30.2933 24.9928 29.7982 24.3828C29.686 24.2447 29.5586 24.1045 29.4154 23.9705ZM27.7569 26.6596C27.8874 26.9045 28.0254 27.208 28.1682 27.575C28.7132 28.976 29.175 30.8877 29.6505 32.9249L29.743 33.3219C30.1759 35.1807 30.6263 37.1144 31.1568 38.6083C31.4389 39.4028 31.7796 40.181 32.2178 40.7858C32.6322 41.3578 33.3756 42.0967 34.5186 42.0967C35.6584 42.0967 36.4036 41.3614 36.8208 40.792C37.2627 40.1886 37.609 39.4112 37.8968 38.6162C38.4486 37.0927 38.9184 35.1138 39.368 33.2199V33.2198L39.4368 32.9303C39.9212 30.8918 40.3876 28.9763 40.9286 27.5702C41.1793 26.9187 41.4139 26.4649 41.6182 26.1833C41.8118 26.4625 42.033 26.9091 42.2676 27.5493C42.7832 28.9566 43.2163 30.8705 43.676 32.9142L43.691 32.9811C44.1325 34.9441 44.601 37.027 45.1851 38.6211C45.4785 39.4223 45.8386 40.2089 46.3095 40.8199C46.7718 41.4198 47.541 42.0967 48.666 42.0967C49.797 42.0967 50.5634 41.4136 51.0202 40.8084C51.484 40.1943 51.8327 39.405 52.1144 38.6052C52.6559 37.0687 53.0864 35.0752 53.497 33.1788V33.1787L53.5558 32.9034C53.9978 30.8622 54.422 28.9558 54.946 27.559C55.0594 27.2551 55.1712 26.996 55.2778 26.7784C56.0805 28.5265 56.5257 30.4567 56.5257 32.4857C56.5257 40.3757 49.7942 46.7721 41.4899 46.7721C33.1857 46.7721 26.4539 40.3757 26.4539 32.4857C26.4539 30.4106 26.9195 28.4388 27.7569 26.6596ZM41.4899 15.342C31.5249 15.342 23.4467 23.0175 23.4467 32.4857C23.4467 41.9538 31.5249 49.6292 41.4899 49.6292C51.4551 49.6292 59.5329 41.9538 59.5329 32.4857C59.5329 23.0175 51.4551 15.342 41.4899 15.342ZM41.8336 25.9442C41.8336 25.9445 41.8301 25.9472 41.8231 25.9511C41.8301 25.9458 41.8336 25.9438 41.8336 25.9442ZM41.418 25.9461C41.411 25.9421 41.4075 25.9393 41.4075 25.9389C41.4075 25.9385 41.4111 25.9406 41.418 25.9461ZM48.4373 39.2966C48.4373 39.2966 48.4406 39.2935 48.4471 39.2896C48.4406 39.2949 48.4373 39.2971 48.4373 39.2966ZM48.8746 39.2851C48.8815 39.2891 48.8853 39.2918 48.8853 39.2922C48.8853 39.2926 48.8815 39.2904 48.8746 39.2851ZM34.2105 39.3223C34.2104 39.3218 34.2148 39.3178 34.2234 39.3121C34.2148 39.3196 34.2105 39.3227 34.2105 39.3223ZM34.8195 39.3148C34.8281 39.3205 34.8324 39.3245 34.8324 39.3249C34.8323 39.3254 34.828 39.3227 34.8195 39.3148Z" fill="#81818B"/>
<path d="M69.4958 42.6351L65.1205 28.4144H68.953L71.5481 38.6498L74.5652 28.4144H78.8503L81.868 38.6498L84.493 28.4144H88.3255L83.9197 42.6351H79.9066L76.7078 31.9982L73.5095 42.6351H69.4958Z" fill="#81818B"/>
<path d="M93.9488 42.9793C92.6615 42.9793 91.6052 42.7877 90.7804 42.4055C89.9562 42.0042 89.3424 41.4786 88.9398 40.8287C88.5376 40.1788 88.3365 39.4621 88.3365 38.6785C88.3365 37.3597 88.8794 36.2893 89.9656 35.4674C91.0519 34.6455 92.682 34.2346 94.8544 34.2346H98.6565V33.8905C98.6565 32.9157 98.3646 32.199 97.7813 31.7402C97.198 31.2815 96.4735 31.0522 95.6089 31.0522C94.824 31.0522 94.1399 31.2337 93.5566 31.5969C92.9734 31.9409 92.6111 32.457 92.4704 33.1451H88.6983C88.7991 32.113 89.1613 31.2146 89.7845 30.45C90.4287 29.6855 91.2535 29.1025 92.2588 28.7012C93.2653 28.2807 94.3914 28.0704 95.6388 28.0704C97.7713 28.0704 99.4508 28.5769 100.678 29.5899C101.905 30.603 102.519 32.0366 102.519 33.8905V42.6351H99.2292L98.8675 40.3416C98.425 41.1061 97.8012 41.7366 96.9969 42.2338C96.2121 42.7306 95.1962 42.9793 93.9488 42.9793ZM94.824 40.112C95.9307 40.112 96.7854 39.7678 97.3886 39.0798C98.0123 38.3919 98.405 37.5411 98.5662 36.5282H95.2765C94.2507 36.5282 93.5167 36.7098 93.0736 37.0729C92.6316 37.4168 92.41 37.8472 92.41 38.3631C92.41 38.9175 92.6316 39.3475 93.0736 39.6532C93.5167 39.9589 94.0995 40.112 94.824 40.112Z" fill="#81818B"/>
<path d="M108.599 42.6351L103.107 28.4144H107.15L110.952 39.1661L114.755 28.4144H118.798L113.276 42.6351H108.599Z" fill="#81818B"/>
<path d="M126.562 42.9793C125.054 42.9793 123.716 42.6732 122.549 42.0617C121.383 41.4498 120.468 40.5898 119.803 39.4811C119.139 38.3728 118.808 37.092 118.808 35.6394C118.808 34.1677 119.13 32.8584 119.773 31.7116C120.437 30.5648 121.342 29.676 122.489 29.0452C123.655 28.3954 125.023 28.0704 126.593 28.0704C128.061 28.0704 129.359 28.3762 130.486 28.9879C131.612 29.5995 132.487 30.4405 133.111 31.5109C133.754 32.5621 134.077 33.7376 134.077 35.0373C134.077 35.2476 134.066 35.4674 134.046 35.6967C134.046 35.9262 134.036 36.165 134.016 36.4135H122.64C122.72 37.5221 123.123 38.3919 123.847 39.0228C124.591 39.6532 125.487 39.9687 126.533 39.9687C127.317 39.9687 127.971 39.8063 128.494 39.4811C129.037 39.1373 129.439 38.6976 129.701 38.1622H133.623C133.342 39.0608 132.869 39.8828 132.205 40.6283C131.561 41.3543 130.757 41.9277 129.791 42.3484C128.846 42.7687 127.769 42.9793 126.562 42.9793ZM126.593 31.0522C125.648 31.0522 124.812 31.3102 124.088 31.8262C123.364 32.3232 122.901 33.0878 122.7 34.1199H130.153C130.093 33.1833 129.731 32.4379 129.067 31.8836C128.403 31.3293 127.579 31.0522 126.593 31.0522Z" fill="#81818B"/>
<path d="M136.118 42.635V21.9922H139.98V42.635H136.118Z" fill="#81818B"/>
<path d="M149.991 42.9793C148.483 42.9793 147.145 42.6732 145.978 42.0617C144.812 41.4498 143.897 40.5898 143.233 39.4811C142.568 38.3728 142.237 37.092 142.237 35.6394C142.237 34.1677 142.559 32.8584 143.202 31.7116C143.866 30.5648 144.771 29.676 145.918 29.0452C147.085 28.3954 148.453 28.0704 150.022 28.0704C151.49 28.0704 152.788 28.3762 153.915 28.9879C155.041 29.5995 155.917 30.4405 156.54 31.5109C157.183 32.5621 157.506 33.7376 157.506 35.0373C157.506 35.2476 157.495 35.4674 157.475 35.6967C157.475 35.9262 157.465 36.165 157.445 36.4135H146.069C146.149 37.5221 146.552 38.3919 147.276 39.0228C148.02 39.6532 148.916 39.9687 149.962 39.9687C150.746 39.9687 151.4 39.8063 151.923 39.4811C152.466 39.1373 152.868 38.6976 153.13 38.1622H157.053C156.771 39.0608 156.298 39.8828 155.635 40.6283C154.99 41.3543 154.186 41.9277 153.22 42.3484C152.275 42.7687 151.199 42.9793 149.991 42.9793ZM150.022 31.0522C149.077 31.0522 148.242 31.3102 147.517 31.8262C146.793 32.3232 146.331 33.0878 146.129 34.1199H153.582C153.522 33.1833 153.16 32.4379 152.496 31.8836C151.832 31.3293 151.008 31.0522 150.022 31.0522Z" fill="#81818B"/>
<path d="M165.733 42.9793C164.405 42.9793 163.238 42.7784 162.233 42.3772C161.226 41.9564 160.422 41.3831 159.818 40.6566C159.215 39.9306 158.853 39.0896 158.732 38.134H162.625C162.745 38.6878 163.068 39.1661 163.591 39.5674C164.133 39.9496 164.827 40.1408 165.672 40.1408C166.517 40.1408 167.131 39.9784 167.513 39.6532C167.915 39.3285 168.117 38.9555 168.117 38.5352C168.117 37.9234 167.835 37.5124 167.272 37.3022C166.709 37.0729 165.924 36.8532 164.918 36.6429C164.275 36.5091 163.621 36.3466 162.957 36.1555C162.293 35.9644 161.68 35.7254 161.116 35.4388C160.573 35.1329 160.13 34.7506 159.788 34.2919C159.446 33.814 159.276 33.2311 159.276 32.543C159.276 31.2815 159.798 30.2207 160.845 29.3606C161.911 28.5005 163.399 28.0704 165.31 28.0704C167.081 28.0704 168.489 28.4622 169.535 29.2459C170.601 30.0296 171.235 31.1095 171.436 32.4857H167.785C167.563 31.4344 166.728 30.9088 165.281 30.9088C164.556 30.9088 163.993 31.0426 163.591 31.3102C163.208 31.5778 163.017 31.9122 163.017 32.3136C163.017 32.7342 163.309 33.0686 163.892 33.3171C164.476 33.5656 165.25 33.7949 166.216 34.0052C167.261 34.2346 168.217 34.4926 169.082 34.7793C169.967 35.0469 170.671 35.4579 171.195 36.0122C171.718 36.5473 171.979 37.3212 171.979 38.3343C171.999 39.2139 171.757 40.0067 171.255 40.7141C170.752 41.4211 170.028 41.9754 169.082 42.3772C168.137 42.7784 167.02 42.9793 165.733 42.9793Z" fill="#81818B"/>
<path d="M180.379 42.9793C179.052 42.9793 177.885 42.7784 176.879 42.3772C175.873 41.9564 175.069 41.3831 174.465 40.6566C173.862 39.9306 173.499 39.0896 173.379 38.134H177.272C177.392 38.6878 177.714 39.1661 178.237 39.5674C178.78 39.9496 179.474 40.1408 180.319 40.1408C181.164 40.1408 181.778 39.9784 182.16 39.6532C182.562 39.3285 182.764 38.9555 182.764 38.5352C182.764 37.9234 182.482 37.5124 181.918 37.3022C181.355 37.0729 180.571 36.8532 179.565 36.6429C178.921 36.5091 178.267 36.3466 177.603 36.1555C176.94 35.9644 176.326 35.7254 175.763 35.4388C175.22 35.1329 174.777 34.7506 174.435 34.2919C174.093 33.814 173.922 33.2311 173.922 32.543C173.922 31.2815 174.445 30.2207 175.491 29.3606C176.558 28.5005 178.046 28.0704 179.957 28.0704C181.727 28.0704 183.135 28.4622 184.182 29.2459C185.247 30.0296 185.881 31.1095 186.083 32.4857H182.431C182.21 31.4344 181.375 30.9088 179.927 30.9088C179.202 30.9088 178.639 31.0426 178.237 31.3102C177.855 31.5778 177.664 31.9122 177.664 32.3136C177.664 32.7342 177.955 33.0686 178.539 33.3171C179.122 33.5656 179.896 33.7949 180.862 34.0052C181.908 34.2346 182.864 34.4926 183.729 34.7793C184.614 35.0469 185.318 35.4579 185.841 36.0122C186.364 36.5473 186.626 37.3212 186.626 38.3343C186.646 39.2139 186.404 40.0067 185.901 40.7141C185.398 41.4211 184.675 41.9754 183.729 42.3772C182.783 42.7784 181.667 42.9793 180.379 42.9793Z" fill="#81818B"/>
</svg>
